<?xml version="1.0" standalone="no"?>
<!DOCTYPE svg PUBLIC "-//W3C//DTD SVG 20010904//EN"
 "http://www.w3.org/TR/2001/REC-SVG-20010904/DTD/svg10.dtd">
<svg version="1.0" xmlns="http://www.w3.org/2000/svg"
 width="500.000000pt" height="500.000000pt" viewBox="0 0 500.000000 500.000000"
 preserveAspectRatio="xMidYMid meet">

<g transform="translate(0.000000,500.000000) scale(0.100000,-0.100000)"
fill="#000000" stroke="none">
<path d="M0 2500 l0 -2500 2500 0 2500 0 0 2500 0 2500 -2500 0 -2500 0 0
-2500z m1144 960 c152 -22 310 -96 415 -194 85 -80 168 -222 186 -318 l7 -38
-126 0 -125 0 -11 39 c-38 143 -178 265 -351 306 -35 8 -109 15 -165 15 -422
0 -686 -318 -661 -799 7 -140 29 -236 83 -350 36 -77 57 -107 121 -171 127
-126 244 -173 438 -174 191 0 320 48 426 162 96 102 159 249 175 409 l7 63
-262 0 -261 0 0 90 0 90 375 0 375 0 0 -490 0 -490 -99 0 -98 0 -7 46 c-3 26
-6 72 -7 103 0 31 -4 76 -7 100 l-7 44 -29 -41 c-45 -66 -165 -174 -231 -209
-104 -54 -170 -67 -355 -68 -142 0 -177 3 -250 23 -264 72 -469 274 -559 552
-51 154 -67 406 -37 576 68 383 322 654 674 718 92 17 271 19 366 6z m1842
-47 c250 -83 375 -249 377 -498 2 -268 -141 -451 -403 -518 -61 -15 -126 -20
-337 -24 l-263 -6 0 -378 0 -379 -110 0 -110 0 0 916 0 916 393 -5 c360 -3
397 -5 453 -24z m1562 -5 c139 -50 229 -128 285 -246 30 -63 32 -74 32 -182 0
-98 -4 -125 -24 -179 -33 -86 -112 -166 -211 -213 l-71 -34 55 -17 c69 -22
165 -92 211 -154 99 -135 115 -333 40 -489 -59 -122 -176 -214 -330 -260 -52
-15 -114 -18 -467 -21 l-408 -4 0 916 0 917 408 -4 407 -4 73 -26z"/>
<path d="M2360 2911 l0 -351 231 0 c174 0 247 4 300 16 164 37 249 152 249
337 0 121 -56 239 -137 287 -76 45 -126 52 -390 57 l-253 5 0 -351z"/>
<path d="M3880 2949 l0 -310 258 3 c274 4 308 9 387 61 144 94 162 341 33 464
-77 74 -170 93 -470 93 l-208 0 0 -311z"/>
<path d="M3880 2126 l0 -336 218 0 c327 1 405 16 496 100 65 60 90 125 91 235
0 79 -3 97 -28 147 -34 70 -100 130 -176 160 -53 21 -73 23 -328 26 l-273 3 0
-335z"/>
</g>
</svg>
